<?xml version="1.0" encoding="utf-8"?>
<!-- Generator: Adobe Illustrator 15.0.0, SVG Export Plug-In . SVG Version: 6.00 Build 0)  -->
<!DOCTYPE svg PUBLIC "-//W3C//DTD SVG 1.1//EN" "http://www.w3.org/Graphics/SVG/1.1/DTD/svg11.dtd">
<svg version="1.1" id="Layer_1" xmlns="http://www.w3.org/2000/svg" xmlns:xlink="http://www.w3.org/1999/xlink" x="0px" y="0px"
	 width="416px" height="60px" viewBox="0 0 416 60" enable-background="new 0 0 416 60" xml:space="preserve">
<g id="REDACTED">
	<g>
		<g>
			<path fill="#CC0000" d="M0,1.449h20.081c3.654,0,6.663,0.5,9.032,1.497c2.364,0.997,4.232,2.253,5.601,3.788
				c1.374,1.533,2.327,3.253,2.866,5.161c0.533,1.91,0.805,3.749,0.805,5.522c0,1.83-0.322,3.59-0.967,5.283
				c-0.645,1.693-1.572,3.227-2.782,4.595c-1.211,1.371-2.688,2.529-4.435,3.471c-1.749,0.939-3.695,1.519-5.847,1.731
				l16.208,26.047h-9.677L16.374,33.383H7.742v25.161H0V1.449z M7.742,26.612h10.16c1.506,0,2.998-0.121,4.477-0.364
				c1.478-0.243,2.794-0.687,3.953-1.332c1.153-0.644,2.082-1.573,2.782-2.783c0.697-1.206,1.047-2.782,1.047-4.716
				c0-1.933-0.35-3.507-1.047-4.719c-0.7-1.206-1.628-2.135-2.782-2.78c-1.158-0.645-2.474-1.086-3.953-1.33
				c-1.479-0.242-2.97-0.365-4.477-0.365H7.742V26.612z"/>
			<path fill="#CC0000" d="M49.27,1.449h36.852V8.71H57.009v17.013v7.255v18.31h30.563v7.255H49.27V1.449z"/>
			<path fill="#FFFFFF" d="M97.249,1.449h19.917c4.03,0,7.566,0.461,10.603,1.375c3.035,0.91,5.67,2.136,7.902,3.666
				c2.231,1.533,4.087,3.295,5.563,5.284c1.48,1.988,2.649,4.029,3.507,6.129c0.86,2.094,1.479,4.193,1.855,6.288
				c0.374,2.099,0.566,4.034,0.566,5.807c0,3.654-0.673,7.188-2.016,10.604c-1.343,3.418-3.335,6.451-5.97,9.108
				c-2.634,2.664-5.898,4.806-9.794,6.413c-3.899,1.619-8.401,2.421-13.507,2.421H97.249V1.449L97.249,1.449z M104.987,51.288h9.757
				c3.281,0,6.386-0.448,9.315-1.337c2.93-0.881,5.495-2.219,7.702-3.992c2.2-1.77,3.951-3.984,5.241-6.648
				c1.29-2.66,1.937-5.774,1.937-9.313c0-1.828-0.297-3.965-0.89-6.41c-0.593-2.448-1.708-4.77-3.346-6.976
				c-1.642-2.205-3.91-4.073-6.813-5.606c-2.903-1.53-6.668-2.295-11.291-2.295h-11.612V51.288L104.987,51.288z"/>
			<path fill="#FFFFFF" d="M179.455,11.45L160.06,58.543h-9.027L176.19,1.449h7.012l24.434,57.094h-9.028"/>
			<path fill="#FFFFFF" d="M254.809,13.788c-1.604-2.095-3.654-3.708-6.123-4.84c-2.476-1.126-5.031-1.69-7.668-1.69
				c-3.223,0-6.141,0.606-8.744,1.814c-2.611,1.21-4.842,2.864-6.692,4.959c-1.853,2.097-3.296,4.558-4.308,7.379
				c-1.029,2.823-1.537,5.849-1.537,9.071c0,3.011,0.482,5.863,1.449,8.55c0.965,2.686,2.373,5.054,4.188,7.097
				c1.828,2.041,4.062,3.649,6.694,4.834c2.634,1.185,5.615,1.776,8.949,1.776c3.279,0,6.153-0.676,8.629-2.021
				c2.475-1.342,4.567-3.225,6.295-5.639l6.525,4.92c-0.424,0.595-1.18,1.434-2.255,2.533c-1.079,1.109-2.498,2.21-4.271,3.311
				c-1.778,1.1-3.91,2.069-6.416,2.897c-2.496,0.837-5.391,1.255-8.668,1.255c-4.517,0-8.584-0.858-12.211-2.581
				c-3.625-1.724-6.728-3.978-9.274-6.769c-2.552-2.804-4.505-5.961-5.847-9.482s-2.021-7.081-2.021-10.682
				c0-4.406,0.731-8.479,2.179-12.217c1.45-3.734,3.487-6.96,6.09-9.673c2.611-2.715,5.736-4.824,9.396-6.33
				C232.818,0.752,236.857,0,241.26,0c3.764,0,7.463,0.725,11.092,2.178c3.627,1.451,6.594,3.682,8.91,6.691L254.809,13.788z"/>
			<path fill="#FFFFFF" d="M283.757,8.71h-18.382V1.449h44.508V8.71h-18.384v49.833h-7.742V8.71z"/>
			<path fill="#CC0000" d="M356.409,58.543h-38.3v-7.255h30.559v-18.31v-7.255V8.71h-29.109V1.449h36.852L356.409,58.543
				L356.409,58.543z"/>
			<path fill="#CC0000" d="M366.087,1.449h19.916c4.031,0,7.567,0.461,10.604,1.375c3.034,0.91,5.671,2.136,7.901,3.666
				c2.229,1.533,4.083,3.295,5.563,5.284c1.479,1.988,2.646,4.029,3.506,6.129c0.857,2.094,1.479,4.193,1.851,6.288
				C415.81,26.29,416,28.225,416,29.997c0,3.655-0.677,7.188-2.019,10.604c-1.346,3.418-3.335,6.45-5.968,9.107
				c-2.634,2.664-5.897,4.805-9.799,6.413c-3.895,1.619-8.395,2.421-13.502,2.421h-18.626V1.449L366.087,1.449z M373.829,51.288
				h9.752c3.278,0,6.383-0.448,9.313-1.337c2.929-0.881,5.492-2.219,7.704-3.992c2.2-1.77,3.946-3.984,5.235-6.648
				c1.292-2.66,1.938-5.774,1.938-9.313c0-1.828-0.297-3.965-0.89-6.41c-0.593-2.448-1.702-4.77-3.342-6.976
				c-1.641-2.205-3.913-4.073-6.813-5.606c-2.907-1.53-6.663-2.295-11.296-2.295h-11.604L373.829,51.288L373.829,51.288z"/>
		</g>
		<rect x="63.214" y="26.398" fill="#CC0000" width="279.167" height="7.208"/>
	</g>
</g>
</svg>
